<?xml version="1.0" encoding="UTF-8" standalone="no"?>
<!DOCTYPE svg PUBLIC "-//W3C//DTD SVG 1.1//EN"
 "http://www.w3.org/Graphics/SVG/1.1/DTD/svg11.dtd">
<!-- Generated by graphviz version 2.40.1 (20161225.0304)
 -->
<!-- Title: dg Pages: 1 -->
<svg width="222pt" height="267pt"
 viewBox="0.00 0.00 221.70 267.00" xmlns="http://www.w3.org/2000/svg" xmlns:xlink="http://www.w3.org/1999/xlink">
<g id="graph0" class="graph" transform="scale(1 1) rotate(0) translate(4 263)">
<title>dg</title>
<polygon fill="#ffffff" stroke="transparent" points="-4,4 -4,-263 217.6982,-263 217.6982,4 -4,4"/>
<!-- node0 -->
<g id="node1" class="node">
<title>node0</title>
<polygon fill="none" stroke="#000000" points="40.6138,-236.5 40.6138,-258.5 105.7241,-258.5 105.7241,-236.5 40.6138,-236.5"/>
<text text-anchor="middle" x="50.3638" y="-243.3" font-family="Times,serif" font-size="14.00" fill="#000000"> </text>
<polyline fill="none" stroke="#000000" points="60.1138,-236.5 60.1138,-258.5 "/>
<text text-anchor="middle" x="73.1689" y="-243.3" font-family="Times,serif" font-size="14.00" fill="#000000">A</text>
<polyline fill="none" stroke="#000000" points="86.2241,-236.5 86.2241,-258.5 "/>
<text text-anchor="middle" x="95.9741" y="-243.3" font-family="Times,serif" font-size="14.00" fill="#000000"> </text>
</g>
<!-- node1 -->
<g id="node2" class="node">
<title>node1</title>
<polygon fill="none" stroke="#000000" points="0,-177.5 0,-199.5 64.3379,-199.5 64.3379,-177.5 0,-177.5"/>
<text text-anchor="middle" x="9.75" y="-184.3" font-family="Times,serif" font-size="14.00" fill="#000000"> </text>
<polyline fill="none" stroke="#000000" points="19.5,-177.5 19.5,-199.5 "/>
<text text-anchor="middle" x="32.1689" y="-184.3" font-family="Times,serif" font-size="14.00" fill="#000000">B</text>
<polyline fill="none" stroke="#000000" points="44.8379,-177.5 44.8379,-199.5 "/>
<text text-anchor="middle" x="54.5879" y="-184.3" font-family="Times,serif" font-size="14.00" fill="#000000"> </text>
</g>
<!-- node0&#45;&gt;node1 -->
<g id="edge1" class="edge">
<title>node0:f1&#45;&gt;node1:f1</title>
<path fill="none" stroke="#000000" d="M73.1689,-236.5C73.1689,-216.1735 45.0515,-220.9714 35.3861,-209.2814"/>
<polygon fill="#000000" stroke="#000000" points="38.6182,-207.9058 32.1689,-199.5 31.9687,-210.0929 38.6182,-207.9058"/>
</g>
<!-- node2 -->
<g id="node3" class="node">
<title>node2</title>
<polygon fill="none" stroke="#000000" points="82.6948,-177.5 82.6948,-199.5 153.6431,-199.5 153.6431,-177.5 82.6948,-177.5"/>
<text text-anchor="middle" x="92.4448" y="-184.3" font-family="Times,serif" font-size="14.00" fill="#000000"> </text>
<polyline fill="none" stroke="#000000" points="102.1948,-177.5 102.1948,-199.5 "/>
<text text-anchor="middle" x="114.8638" y="-184.3" font-family="Times,serif" font-size="14.00" fill="#000000">C</text>
<polyline fill="none" stroke="#000000" points="127.5327,-177.5 127.5327,-199.5 "/>
<text text-anchor="middle" x="140.5879" y="-184.3" font-family="Times,serif" font-size="14.00" fill="#000000">D</text>
</g>
<!-- node0&#45;&gt;node2 -->
<g id="edge2" class="edge">
<title>node0:f1&#45;&gt;node2:f1</title>
<path fill="none" stroke="#000000" d="M73.1689,-236.5C73.1689,-215.7044 102.5182,-221.205 112.1484,-209.0378"/>
<polygon fill="#000000" stroke="#000000" points="115.4864,-210.0901 115.1689,-199.5 108.8131,-207.9766 115.4864,-210.0901"/>
</g>
<!-- node3 -->
<g id="node4" class="node">
<title>node3</title>
<polygon fill="none" stroke="#000000" points="103.25,-118.5 103.25,-140.5 171.0879,-140.5 171.0879,-118.5 103.25,-118.5"/>
<text text-anchor="middle" x="115.5259" y="-125.3" font-family="Times,serif" font-size="14.00" fill="#000000">E</text>
<polyline fill="none" stroke="#000000" points="127.8018,-118.5 127.8018,-140.5 "/>
<text text-anchor="middle" x="139.6948" y="-125.3" font-family="Times,serif" font-size="14.00" fill="#000000">F</text>
<polyline fill="none" stroke="#000000" points="151.5879,-118.5 151.5879,-140.5 "/>
<text text-anchor="middle" x="161.3379" y="-125.3" font-family="Times,serif" font-size="14.00" fill="#000000"> </text>
</g>
<!-- node2&#45;&gt;node3 -->
<g id="edge3" class="edge">
<title>node2:f2&#45;&gt;node3:f1</title>
<path fill="none" stroke="#000000" d="M140.1689,-177.5C140.1689,-165.0382 140.1689,-159.6592 140.1689,-150.6281"/>
<polygon fill="#000000" stroke="#000000" points="143.669,-150.5 140.1689,-140.5 136.669,-150.5 143.669,-150.5"/>
</g>
<!-- node4 -->
<g id="node5" class="node">
<title>node4</title>
<polygon fill="none" stroke="#000000" points="41.6138,-59.5 41.6138,-81.5 106.7241,-81.5 106.7241,-59.5 41.6138,-59.5"/>
<text text-anchor="middle" x="51.3638" y="-66.3" font-family="Times,serif" font-size="14.00" fill="#000000"> </text>
<polyline fill="none" stroke="#000000" points="61.1138,-59.5 61.1138,-81.5 "/>
<text text-anchor="middle" x="74.1689" y="-66.3" font-family="Times,serif" font-size="14.00" fill="#000000">G</text>
<polyline fill="none" stroke="#000000" points="87.2241,-59.5 87.2241,-81.5 "/>
<text text-anchor="middle" x="96.9741" y="-66.3" font-family="Times,serif" font-size="14.00" fill="#000000"> </text>
</g>
<!-- node3&#45;&gt;node4 -->
<g id="edge4" class="edge">
<title>node3:f0&#45;&gt;node4:f1</title>
<path fill="none" stroke="#000000" d="M115.1689,-118.5C115.1689,-98.1735 87.0515,-102.9714 77.3861,-91.2814"/>
<polygon fill="#000000" stroke="#000000" points="80.6182,-89.9058 74.1689,-81.5 73.9687,-92.0929 80.6182,-89.9058"/>
</g>
<!-- node5 -->
<g id="node6" class="node">
<title>node5</title>
<polygon fill="none" stroke="#000000" points="125.0327,-59.5 125.0327,-81.5 191.3052,-81.5 191.3052,-59.5 125.0327,-59.5"/>
<text text-anchor="middle" x="134.7827" y="-66.3" font-family="Times,serif" font-size="14.00" fill="#000000"> </text>
<polyline fill="none" stroke="#000000" points="144.5327,-59.5 144.5327,-81.5 "/>
<text text-anchor="middle" x="157.5879" y="-66.3" font-family="Times,serif" font-size="14.00" fill="#000000">H</text>
<polyline fill="none" stroke="#000000" points="170.6431,-59.5 170.6431,-81.5 "/>
<text text-anchor="middle" x="180.9741" y="-66.3" font-family="Times,serif" font-size="14.00" fill="#000000">I</text>
</g>
<!-- node3&#45;&gt;node5 -->
<g id="edge5" class="edge">
<title>node3:f0&#45;&gt;node5:f1</title>
<path fill="none" stroke="#000000" d="M115.1689,-118.5C115.1689,-97.7044 144.5182,-103.205 154.1484,-91.0378"/>
<polygon fill="#000000" stroke="#000000" points="157.4864,-92.0901 157.1689,-81.5 150.8131,-89.9766 157.4864,-92.0901"/>
</g>
<!-- node6 -->
<g id="node7" class="node">
<title>node6</title>
<polygon fill="none" stroke="#000000" points="146.6396,-.5 146.6396,-22.5 213.6982,-22.5 213.6982,-.5 146.6396,-.5"/>
<text text-anchor="middle" x="157.3638" y="-7.3" font-family="Times,serif" font-size="14.00" fill="#000000">J</text>
<polyline fill="none" stroke="#000000" points="168.0879,-.5 168.0879,-22.5 "/>
<text text-anchor="middle" x="181.1431" y="-7.3" font-family="Times,serif" font-size="14.00" fill="#000000">K</text>
<polyline fill="none" stroke="#000000" points="194.1982,-.5 194.1982,-22.5 "/>
<text text-anchor="middle" x="203.9482" y="-7.3" font-family="Times,serif" font-size="14.00" fill="#000000"> </text>
</g>
<!-- node5&#45;&gt;node6 -->
<g id="edge6" class="edge">
<title>node5:f2&#45;&gt;node6:f1</title>
<path fill="none" stroke="#000000" d="M181.1689,-59.5C181.1689,-47.0382 181.1689,-41.6592 181.1689,-32.6281"/>
<polygon fill="#000000" stroke="#000000" points="184.669,-32.5 181.1689,-22.5 177.669,-32.5 184.669,-32.5"/>
</g>
</g>
</svg>
