<?xml version="1.0" encoding="UTF-8" standalone="no"?>
<!DOCTYPE svg PUBLIC "-//W3C//DTD SVG 1.1//EN"
 "http://www.w3.org/Graphics/SVG/1.1/DTD/svg11.dtd">
<!-- Generated by graphviz version 2.40.1 (20161225.0304)
 -->
<!-- Title: st2 Pages: 1 -->
<svg width="198pt" height="248pt"
 viewBox="0.00 0.00 198.44 247.53" xmlns="http://www.w3.org/2000/svg" xmlns:xlink="http://www.w3.org/1999/xlink">
<g id="graph0" class="graph" transform="scale(1 1) rotate(0) translate(4 243.5332)">
<title>st2</title>
<polygon fill="#ffffff" stroke="transparent" points="-4,4 -4,-243.5332 194.4443,-243.5332 194.4443,4 -4,4"/>
<!-- st_hash_type -->
<g id="node1" class="node">
<title>st_hash_type</title>
<polygon fill="none" stroke="#87ceeb" points="0,-20.6533 0,-81.1133 83.7344,-81.1133 83.7344,-20.6533 0,-20.6533"/>
<text text-anchor="middle" x="41.8672" y="-69.1133" font-family="Verdana" font-size="10.00" fill="#000000">st_hash_type</text>
<polyline fill="none" stroke="#87ceeb" points="0,-60.96 83.7344,-60.96 "/>
<text text-anchor="middle" x="41.8672" y="-48.96" font-family="Verdana" font-size="10.00" fill="#000000">(*compare)</text>
<polyline fill="none" stroke="#87ceeb" points="0,-40.8066 83.7344,-40.8066 "/>
<text text-anchor="middle" x="41.8672" y="-28.8066" font-family="Verdana" font-size="10.00" fill="#000000">(*hash)</text>
</g>
<!-- st_table_entry -->
<g id="node2" class="node">
<title>st_table_entry</title>
<polygon fill="none" stroke="#87ceeb" points="101.29,-.5 101.29,-101.2666 190.4443,-101.2666 190.4443,-.5 101.29,-.5"/>
<text text-anchor="middle" x="145.8672" y="-89.2666" font-family="Verdana" font-size="10.00" fill="#000000">st_table_entry</text>
<polyline fill="none" stroke="#87ceeb" points="101.29,-81.1133 190.4443,-81.1133 "/>
<text text-anchor="middle" x="145.8672" y="-69.1133" font-family="Verdana" font-size="10.00" fill="#000000">hash</text>
<polyline fill="none" stroke="#87ceeb" points="101.29,-60.96 190.4443,-60.96 "/>
<text text-anchor="middle" x="145.8672" y="-48.96" font-family="Verdana" font-size="10.00" fill="#000000">key</text>
<polyline fill="none" stroke="#87ceeb" points="101.29,-40.8066 190.4443,-40.8066 "/>
<text text-anchor="middle" x="145.8672" y="-28.8066" font-family="Verdana" font-size="10.00" fill="#000000">record</text>
<polyline fill="none" stroke="#87ceeb" points="101.29,-20.6533 190.4443,-20.6533 "/>
<text text-anchor="middle" x="145.8672" y="-8.6533" font-family="Verdana" font-size="10.00" fill="#000000">next</text>
</g>
<!-- st_table_entry&#45;&gt;st_table_entry -->
<g id="edge3" class="edge">
<title>st_table_entry:next&#45;&gt;st_table_entry:head</title>
<path fill="none" stroke="#228b22" stroke-dasharray="5,2" d="M147.7224,-20.9412C154.8176,-67.5562 154.1992,-169.7666 145.8672,-169.7666 138.6341,-169.7666 137.2141,-140.4857 141.6072,-111.5731"/>
<polygon fill="#228b22" stroke="#228b22" points="145.1094,-111.8669 143.4035,-101.4104 138.2163,-110.6485 145.1094,-111.8669"/>
</g>
<!-- st_table -->
<g id="node3" class="node">
<title>st_table</title>
<polygon fill="none" stroke="#87ceeb" points="54.2949,-138.2666 54.2949,-239.0332 133.4395,-239.0332 133.4395,-138.2666 54.2949,-138.2666"/>
<text text-anchor="middle" x="93.8672" y="-227.0332" font-family="Verdana" font-size="10.00" fill="#000000">st_table</text>
<polyline fill="none" stroke="#87ceeb" points="54.2949,-218.8799 133.4395,-218.8799 "/>
<text text-anchor="middle" x="93.8672" y="-206.8799" font-family="Verdana" font-size="10.00" fill="#000000">type</text>
<polyline fill="none" stroke="#87ceeb" points="54.2949,-198.7266 133.4395,-198.7266 "/>
<text text-anchor="middle" x="93.8672" y="-186.7266" font-family="Verdana" font-size="10.00" fill="#000000">num_bins</text>
<polyline fill="none" stroke="#87ceeb" points="54.2949,-178.5732 133.4395,-178.5732 "/>
<text text-anchor="middle" x="93.8672" y="-166.5732" font-family="Verdana" font-size="10.00" fill="#000000">num_entries</text>
<polyline fill="none" stroke="#87ceeb" points="54.2949,-158.4199 133.4395,-158.4199 "/>
<text text-anchor="middle" x="93.8672" y="-146.4199" font-family="Verdana" font-size="10.00" fill="#000000">bins</text>
</g>
<!-- st_table&#45;&gt;st_hash_type -->
<g id="edge2" class="edge">
<title>st_table:type&#45;&gt;st_hash_type:head</title>
<path fill="none" stroke="#dc143c" d="M53.8672,-208.6499C22.3635,-208.6499 46.2155,-168.3269 53.8672,-137.7666 56.7109,-126.409 79.3801,-96.8259 85.8581,-81.0839"/>
<polygon fill="#dc143c" stroke="#dc143c" points="89.218,-80.0276 83.8672,-70.8833 82.3477,-81.3686 89.218,-80.0276"/>
</g>
<!-- st_table&#45;&gt;st_table_entry -->
<g id="edge1" class="edge">
<title>st_table:bins&#45;&gt;st_table_entry:head</title>
<path fill="none" stroke="#dc143c" d="M133.8672,-148.6499C155.6967,-148.6499 111.1903,-117.1637 98.2971,-100.6826"/>
<polygon fill="#dc143c" stroke="#dc143c" points="101.7157,-101.4441 100.8672,-90.8833 94.9447,-99.6682 101.7157,-101.4441"/>
</g>
</g>
</svg>
