<?xml version="1.0" encoding="UTF-8" standalone="no"?>
<!DOCTYPE svg PUBLIC "-//W3C//DTD SVG 1.1//EN"
 "http://www.w3.org/Graphics/SVG/1.1/DTD/svg11.dtd">
<!-- Generated by graphviz version 2.40.1 (20161225.0304)
 -->
<!-- Title: time Pages: 1 -->
<svg width="424pt" height="247pt"
 viewBox="0.00 0.00 424.24 247.00" xmlns="http://www.w3.org/2000/svg" xmlns:xlink="http://www.w3.org/1999/xlink">
<g id="graph0" class="graph" transform="scale(1 1) rotate(0) translate(4 243)">
<title>time</title>
<polygon fill="#ffffff" stroke="transparent" points="-4,4 -4,-243 420.2422,-243 420.2422,4 -4,4"/>
<!-- LC -->
<g id="node1" class="node">
<title>LC</title>
<text text-anchor="middle" x="16.9448" y="-223.8" font-family="Times,serif" font-size="14.00" fill="#000000">LC</text>
</g>
<!-- step00 -->
<g id="node2" class="node">
<title>step00</title>
<ellipse fill="#000000" stroke="#000000" cx="16.9448" cy="-181" rx="0" ry="0"/>
</g>
<!-- LC&#45;&gt;step00 -->
<g id="edge1" class="edge">
<title>LC&#45;&gt;step00</title>
<path fill="none" stroke="#000000" d="M16.9448,-216.7061C16.9448,-204.9265 16.9448,-193.1468 16.9448,-181.3672"/>
</g>
<!-- step01 -->
<g id="node3" class="node">
<title>step01</title>
<ellipse fill="#000000" stroke="#000000" cx="16.9448" cy="-144" rx="0" ry="0"/>
</g>
<!-- step00&#45;&gt;step01 -->
<g id="edge2" class="edge">
<title>step00&#45;&gt;step01</title>
<path fill="none" stroke="#000000" d="M16.9448,-180.7132C16.9448,-168.5718 16.9448,-156.4304 16.9448,-144.2891"/>
</g>
<!-- step10 -->
<g id="node9" class="node">
<title>step10</title>
<ellipse fill="#000000" stroke="#000000" cx="241.5591" cy="-181" rx="0" ry="0"/>
</g>
<!-- step00&#45;&gt;step10 -->
<g id="edge19" class="edge">
<title>step00&#45;&gt;step10</title>
<path fill="none" stroke="#000000" stroke-dasharray="5,2" d="M17.1076,-181C23.0183,-181 188.1602,-181 231.3199,-181"/>
<polygon fill="#000000" stroke="#000000" points="231.4013,-184.5001 241.4013,-181 231.4013,-177.5001 231.4013,-184.5001"/>
<text text-anchor="middle" x="122.8398" y="-183.8" font-family="Times,serif" font-size="14.00" fill="#000000">send email new customer</text>
</g>
<!-- step02 -->
<g id="node4" class="node">
<title>step02</title>
<ellipse fill="#000000" stroke="#000000" cx="16.9448" cy="-108" rx="0" ry="0"/>
</g>
<!-- step01&#45;&gt;step02 -->
<g id="edge3" class="edge">
<title>step01&#45;&gt;step02</title>
<path fill="none" stroke="#000000" d="M16.9448,-143.7209C16.9448,-131.9077 16.9448,-120.0945 16.9448,-108.2813"/>
</g>
<!-- step03 -->
<g id="node5" class="node">
<title>step03</title>
<ellipse fill="#000000" stroke="#000000" cx="16.9448" cy="-72" rx="0" ry="0"/>
</g>
<!-- step02&#45;&gt;step03 -->
<g id="edge4" class="edge">
<title>step02&#45;&gt;step03</title>
<path fill="none" stroke="#000000" d="M16.9448,-107.7209C16.9448,-95.9077 16.9448,-84.0945 16.9448,-72.2813"/>
</g>
<!-- step04 -->
<g id="node6" class="node">
<title>step04</title>
<ellipse fill="#000000" stroke="#000000" cx="16.9448" cy="-36" rx="0" ry="0"/>
</g>
<!-- step03&#45;&gt;step04 -->
<g id="edge5" class="edge">
<title>step03&#45;&gt;step04</title>
<path fill="none" stroke="#000000" d="M16.9448,-71.7209C16.9448,-59.9077 16.9448,-48.0945 16.9448,-36.2813"/>
</g>
<!-- step05 -->
<g id="node7" class="node">
<title>step05</title>
<ellipse fill="#000000" stroke="#000000" cx="16.9448" cy="0" rx="0" ry="0"/>
</g>
<!-- step04&#45;&gt;step05 -->
<g id="edge6" class="edge">
<title>step04&#45;&gt;step05</title>
<path fill="none" stroke="#000000" d="M16.9448,-35.7209C16.9448,-23.9077 16.9448,-12.0945 16.9448,-.2813"/>
</g>
<!-- Agency -->
<g id="node8" class="node">
<title>Agency</title>
<text text-anchor="middle" x="241.5591" y="-223.8" font-family="Times,serif" font-size="14.00" fill="#000000">Agency</text>
</g>
<!-- Agency&#45;&gt;step10 -->
<g id="edge7" class="edge">
<title>Agency&#45;&gt;step10</title>
<path fill="none" stroke="#000000" d="M241.5591,-216.7061C241.5591,-204.9265 241.5591,-193.1468 241.5591,-181.3672"/>
</g>
<!-- step11 -->
<g id="node10" class="node">
<title>step11</title>
<ellipse fill="#000000" stroke="#000000" cx="241.5591" cy="-144" rx="0" ry="0"/>
</g>
<!-- step10&#45;&gt;step11 -->
<g id="edge8" class="edge">
<title>step10&#45;&gt;step11</title>
<path fill="none" stroke="#000000" d="M241.5591,-180.7132C241.5591,-168.5718 241.5591,-156.4304 241.5591,-144.2891"/>
</g>
<!-- step11&#45;&gt;step01 -->
<g id="edge20" class="edge">
<title>step11&#45;&gt;step01</title>
<path fill="none" stroke="#000000" stroke-dasharray="5,2" d="M241.4013,-144C235.5815,-144 70.4503,-144 27.221,-144"/>
<polygon fill="#000000" stroke="#000000" points="27.1077,-140.5001 17.1076,-144 27.1076,-147.5001 27.1077,-140.5001"/>
<text text-anchor="middle" x="122.8398" y="-146.8" font-family="Times,serif" font-size="14.00" fill="#000000">declines</text>
</g>
<!-- step12 -->
<g id="node11" class="node">
<title>step12</title>
<ellipse fill="#000000" stroke="#000000" cx="241.5591" cy="-108" rx="0" ry="0"/>
</g>
<!-- step11&#45;&gt;step12 -->
<g id="edge9" class="edge">
<title>step11&#45;&gt;step12</title>
<path fill="none" stroke="#000000" d="M241.5591,-143.7209C241.5591,-131.9077 241.5591,-120.0945 241.5591,-108.2813"/>
</g>
<!-- step12&#45;&gt;step02 -->
<g id="edge21" class="edge">
<title>step12&#45;&gt;step02</title>
<path fill="none" stroke="#000000" stroke-dasharray="5,2" d="M241.4013,-108C235.5815,-108 70.4503,-108 27.221,-108"/>
<polygon fill="#000000" stroke="#000000" points="27.1077,-104.5001 17.1076,-108 27.1076,-111.5001 27.1077,-104.5001"/>
<text text-anchor="middle" x="122.8398" y="-110.8" font-family="Times,serif" font-size="14.00" fill="#000000">accepts</text>
</g>
<!-- step13 -->
<g id="node12" class="node">
<title>step13</title>
<ellipse fill="#000000" stroke="#000000" cx="241.5591" cy="-72" rx="0" ry="0"/>
</g>
<!-- step12&#45;&gt;step13 -->
<g id="edge10" class="edge">
<title>step12&#45;&gt;step13</title>
<path fill="none" stroke="#000000" d="M241.5591,-107.7209C241.5591,-95.9077 241.5591,-84.0945 241.5591,-72.2813"/>
</g>
<!-- step14 -->
<g id="node13" class="node">
<title>step14</title>
<ellipse fill="#000000" stroke="#000000" cx="241.5591" cy="-36" rx="0" ry="0"/>
</g>
<!-- step13&#45;&gt;step14 -->
<g id="edge11" class="edge">
<title>step13&#45;&gt;step14</title>
<path fill="none" stroke="#000000" d="M241.5591,-71.7209C241.5591,-59.9077 241.5591,-48.0945 241.5591,-36.2813"/>
</g>
<!-- step23 -->
<g id="node19" class="node">
<title>step23</title>
<ellipse fill="#000000" stroke="#000000" cx="391.1353" cy="-72" rx="0" ry="0"/>
</g>
<!-- step13&#45;&gt;step23 -->
<g id="edge22" class="edge">
<title>step13&#45;&gt;step23</title>
<path fill="none" stroke="#000000" stroke-dasharray="5,2" d="M241.6675,-72C245.4642,-72 347.9229,-72 380.9675,-72"/>
<polygon fill="#000000" stroke="#000000" points="381.0302,-75.5001 391.0302,-72 381.0302,-68.5001 381.0302,-75.5001"/>
<text text-anchor="middle" x="318.6782" y="-74.8" font-family="Times,serif" font-size="14.00" fill="#000000">forward to</text>
</g>
<!-- step14&#45;&gt;step04 -->
<g id="edge24" class="edge">
<title>step14&#45;&gt;step04</title>
<path fill="none" stroke="#000000" stroke-dasharray="5,2" d="M241.4013,-36C235.5815,-36 70.4503,-36 27.221,-36"/>
<polygon fill="#000000" stroke="#000000" points="27.1077,-32.5001 17.1076,-36 27.1076,-39.5001 27.1077,-32.5001"/>
</g>
<!-- step15 -->
<g id="node14" class="node">
<title>step15</title>
<ellipse fill="#000000" stroke="#000000" cx="241.5591" cy="0" rx="0" ry="0"/>
</g>
<!-- step14&#45;&gt;step15 -->
<g id="edge12" class="edge">
<title>step14&#45;&gt;step15</title>
<path fill="none" stroke="#000000" d="M241.5591,-35.7209C241.5591,-23.9077 241.5591,-12.0945 241.5591,-.2813"/>
</g>
<!-- Agent -->
<g id="node15" class="node">
<title>Agent</title>
<text text-anchor="middle" x="391.1353" y="-222.8" font-family="Times,serif" font-size="14.00" fill="#000000">Agent</text>
</g>
<!-- step20 -->
<g id="node16" class="node">
<title>step20</title>
<ellipse fill="#000000" stroke="#000000" cx="391.1353" cy="-180" rx="0" ry="0"/>
</g>
<!-- Agent&#45;&gt;step20 -->
<g id="edge13" class="edge">
<title>Agent&#45;&gt;step20</title>
<path fill="none" stroke="#000000" d="M391.1353,-215.7061C391.1353,-203.9265 391.1353,-192.1468 391.1353,-180.3672"/>
</g>
<!-- step21 -->
<g id="node17" class="node">
<title>step21</title>
<ellipse fill="#000000" stroke="#000000" cx="391.1353" cy="-144" rx="0" ry="0"/>
</g>
<!-- step20&#45;&gt;step21 -->
<g id="edge14" class="edge">
<title>step20&#45;&gt;step21</title>
<path fill="none" stroke="#000000" d="M391.1353,-179.7209C391.1353,-167.9077 391.1353,-156.0945 391.1353,-144.2813"/>
</g>
<!-- step22 -->
<g id="node18" class="node">
<title>step22</title>
<ellipse fill="#000000" stroke="#000000" cx="391.1353" cy="-108" rx="0" ry="0"/>
</g>
<!-- step21&#45;&gt;step22 -->
<g id="edge15" class="edge">
<title>step21&#45;&gt;step22</title>
<path fill="none" stroke="#000000" d="M391.1353,-143.7209C391.1353,-131.9077 391.1353,-120.0945 391.1353,-108.2813"/>
</g>
<!-- step22&#45;&gt;step23 -->
<g id="edge16" class="edge">
<title>step22&#45;&gt;step23</title>
<path fill="none" stroke="#000000" d="M391.1353,-107.7209C391.1353,-95.9077 391.1353,-84.0945 391.1353,-72.2813"/>
</g>
<!-- step24 -->
<g id="node20" class="node">
<title>step24</title>
<ellipse fill="#000000" stroke="#000000" cx="391.1353" cy="-36" rx="0" ry="0"/>
</g>
<!-- step23&#45;&gt;step24 -->
<g id="edge17" class="edge">
<title>step23&#45;&gt;step24</title>
<path fill="none" stroke="#000000" d="M391.1353,-71.7209C391.1353,-59.9077 391.1353,-48.0945 391.1353,-36.2813"/>
</g>
<!-- step24&#45;&gt;step14 -->
<g id="edge23" class="edge">
<title>step24&#45;&gt;step14</title>
<path fill="none" stroke="#000000" stroke-dasharray="5,2" d="M391.0302,-36C386.6402,-36 246.126,-36 241.6675,-36"/>
</g>
<!-- step25 -->
<g id="node21" class="node">
<title>step25</title>
<ellipse fill="#000000" stroke="#000000" cx="391.1353" cy="0" rx="0" ry="0"/>
</g>
<!-- step24&#45;&gt;step25 -->
<g id="edge18" class="edge">
<title>step24&#45;&gt;step25</title>
<path fill="none" stroke="#000000" d="M391.1353,-35.7209C391.1353,-23.9077 391.1353,-12.0945 391.1353,-.2813"/>
</g>
</g>
</svg>
